<svg width="16" height="16" viewBox="0 0 16 16" fill="none" xmlns="http://www.w3.org/2000/svg">
<path d="M1.33203 5.33203V7.99937H1.9987V11.9987H1.33203V13.9987H11.9987L13.9987 13.9994V13.9987H14.6654V11.9987H13.9987V7.99937H14.6654V5.33203L7.9987 1.33203L1.33203 5.33203ZM3.9987 11.9987V7.99937H5.33203V11.9987H3.9987ZM7.33203 11.9987V7.99937H8.66536V11.9987H7.33203ZM11.9987 11.9987H10.6654V7.99937H11.9987V11.9987ZM9.33203 5.33203C9.33199 5.50717 9.29745 5.68059 9.23038 5.84238C9.16332 6.00417 9.06505 6.15117 8.94117 6.27498C8.8173 6.39879 8.67025 6.49699 8.50843 6.56397C8.3466 6.63096 8.17317 6.66541 7.99803 6.66536C7.82289 6.66532 7.64948 6.63078 7.48768 6.56372C7.32589 6.49665 7.1789 6.39838 7.05508 6.27451C6.93127 6.15063 6.83307 6.00359 6.76609 5.84176C6.69911 5.67994 6.66465 5.5065 6.6647 5.33136C6.66479 4.97765 6.80538 4.63847 7.05556 4.38842C7.30573 4.13837 7.64499 3.99794 7.9987 3.99803C8.35241 3.99812 8.6916 4.13872 8.94165 4.38889C9.19169 4.63906 9.33212 4.97832 9.33203 5.33203V5.33203Z" fill="#3B82F6"/>
</svg>
