<svg width="14" height="16" viewBox="0 0 14 16" fill="none" xmlns="http://www.w3.org/2000/svg">
<path d="M7 0C10.9 0 14 1.1 14 2.5V13C14 13.5531 13.5531 14 13 14V15C13 15.5531 12.5531 16 12 16H11C10.4469 16 10 15.5531 10 15V14H4V15C4 15.5531 3.55313 16 3 16H2C1.44781 16 1 15.5531 1 15V14C0.447812 14 0 13.5531 0 13V2.5C0 1.1 3.09969 0 7 0ZM2 8C2 8.55313 2.44781 9 3 9H11C11.5531 9 12 8.55313 12 8V4C12 3.44687 11.5531 3 11 3H3C2.44781 3 2 3.44687 2 4V8ZM2.5 12.5C3.05219 12.5 3.5 12.0531 3.5 11.5C3.5 10.9469 3.05219 10.5 2.5 10.5C1.94781 10.5 1.5 10.9469 1.5 11.5C1.5 12.0531 1.94781 12.5 2.5 12.5ZM11.5 12.5C12.0531 12.5 12.5 12.0531 12.5 11.5C12.5 10.9469 12.0531 10.5 11.5 10.5C10.9469 10.5 10.5 10.9469 10.5 11.5C10.5 12.0531 10.9469 12.5 11.5 12.5Z" fill="#3B82F6"/>
</svg>
