<svg width="18" height="16" viewBox="0 0 18 16" fill="none" xmlns="http://www.w3.org/2000/svg">
<path d="M3 4H3.05C3.28125 2.85906 4.29062 2 5.5 2C5.94063 2 6.37812 2.12812 6.77812 2.35156C7.19375 1.54844 8.03438 1 9 1C9.96562 1 10.8063 1.54875 11.2219 2.35156C11.5938 2.12812 12.0312 2 12.5 2C13.7094 2 14.6906 2.85906 14.95 4H15C16.1031 4 17 4.89688 17 6C17 6.36562 16.9031 6.70625 16.7313 7H1.2675C1.0975 6.70625 1 6.36562 1 6C1 4.89688 1.89531 4 3 4ZM0.5 8.85625C0.5 8.38437 0.88375 8 1.35719 8H16.6437C17.1156 8 17.5 8.38437 17.5 8.85625C17.5 11.1344 16.0187 13.0687 13.9656 13.7437C13.9875 13.825 14 13.9125 14 14C14 14.5531 13.5531 15 13 15H5C4.44687 15 4 14.5531 4 14C4 13.9125 4.0125 13.825 4.03438 13.7437C1.98125 13.0687 0.5 11.1344 0.5 8.85625Z" fill="#3B82F6"/>
</svg>
