<svg width="16" height="16" viewBox="0 0 16 16" fill="none" xmlns="http://www.w3.org/2000/svg">
<path d="M6.5 14.5009V10.9959C6.5 10.7509 6.75 10.5009 7 10.5009H9C9.25 10.5009 9.5 10.7509 9.5 11.0009V14.5009C9.5 14.6335 9.55268 14.7607 9.64645 14.8544C9.74022 14.9482 9.86739 15.0009 10 15.0009H14C14.1326 15.0009 14.2598 14.9482 14.3536 14.8544C14.4473 14.7607 14.5 14.6335 14.5 14.5009V7.50089C14.5001 7.43519 14.4873 7.3701 14.4622 7.30936C14.4372 7.24862 14.4004 7.19341 14.354 7.14689L13 5.79389V2.50089C13 2.36829 12.9473 2.24111 12.8536 2.14734C12.7598 2.05357 12.6326 2.00089 12.5 2.00089H11.5C11.3674 2.00089 11.2402 2.05357 11.1464 2.14734C11.0527 2.24111 11 2.36829 11 2.50089V3.79389L8.354 1.14689C8.30756 1.10033 8.25238 1.06339 8.19163 1.03818C8.13089 1.01297 8.06577 1 8 1C7.93423 1 7.86911 1.01297 7.80837 1.03818C7.74762 1.06339 7.69245 1.10033 7.646 1.14689L1.646 7.14689C1.5996 7.19341 1.56282 7.24862 1.53777 7.30936C1.51272 7.3701 1.49988 7.43519 1.5 7.50089V14.5009C1.5 14.6335 1.55268 14.7607 1.64645 14.8544C1.74022 14.9482 1.86739 15.0009 2 15.0009H6C6.13261 15.0009 6.25979 14.9482 6.35355 14.8544C6.44732 14.7607 6.5 14.6335 6.5 14.5009Z" fill="#3B82F6"/>
</svg>
